<svg xmlns="http://www.w3.org/2000/svg" viewBox="0 0 38.987 32.734">
  <defs>
    <style>
      .cls-1 {
        fill: none;
      }

      .cls-2, .cls-5 {
        fill: #fff;
      }

      .cls-3 {
        fill: #202020;
      }

      .cls-4, .cls-5 {
        stroke: none;
      }
    </style>
  </defs>
  <g id="グループ化_67" data-name="グループ化 67" transform="translate(-3493.787 -1038.787)">
    <g id="交差_1" data-name="交差 1" class="cls-1" transform="translate(3493.787 1038.787)">
      <path class="cls-4" d="M0,16.367,16.367,0,32.733,16.367,16.367,32.734Z"/>
      <path class="cls-5" d="M 16.36660194396973 31.31983947753906 L 31.31900024414063 16.367431640625 L 16.36660194396973 1.414255857467651 L 1.414203405380249 16.367431640625 L 16.36660194396973 31.31983947753906 M 16.36660194396973 32.73405838012695 L 1.943969664353062e-06 16.3674488067627 L 16.36660194396973 -8.099365231828415e-07 L 32.73320007324219 16.3674488067627 L 16.36660194396973 32.73405838012695 Z"/>
    </g>
    <g id="交差_2" data-name="交差 2" class="cls-2" transform="translate(3500.041 1038.787)">
      <path class="cls-4" d="M 16.36660194396973 32.02695846557617 L 0.7070926427841187 16.36743927001953 L 16.36660194396973 0.7071175575256348 L 32.0261116027832 16.36743927001953 L 16.36660194396973 32.02695846557617 Z"/>
      <path class="cls-5" d="M 16.36660194396973 31.31983947753906 L 31.31900024414063 16.367431640625 L 16.36660194396973 1.414255857467651 L 1.414203405380249 16.367431640625 L 16.36660194396973 31.31983947753906 M 16.36660194396973 32.73405838012695 L 1.943969664353062e-06 16.3674488067627 L 16.36660194396973 -8.099365231828415e-07 L 32.73320007324219 16.3674488067627 L 16.36660194396973 32.73405838012695 Z"/>
    </g>
    <path id="パス_11" data-name="パス 11" class="cls-3" d="M.516-8.255A1.3,1.3,0,0,1,.953-9.262a1.649,1.649,0,0,1,1.155-.4,1.649,1.649,0,0,1,1.155.4A1.3,1.3,0,0,1,3.7-8.255a1.286,1.286,0,0,1-.437.991,1.649,1.649,0,0,1-1.155.4,1.649,1.649,0,0,1-1.155-.4A1.286,1.286,0,0,1,.516-8.255ZM3.435-5.8V2.907H.766V-5.8Z" transform="translate(3514.156 1058.397)"/>
  </g>
</svg>
