<svg xmlns="http://www.w3.org/2000/svg" viewBox="0 0 46 46">
  <defs>
    <style>
      .cls-1 {
        fill: #fff;
      }
    </style>
  </defs>
  <g id="グループ化_95" data-name="グループ化 95" transform="translate(-648.947 -184.947)">
    <path id="XMLID_17_" class="cls-1" d="M32.3,0H13.7A13.719,13.719,0,0,0,0,13.7V32.3A13.719,13.719,0,0,0,13.7,46H32.3A13.719,13.719,0,0,0,46,32.3V13.7A13.719,13.719,0,0,0,32.3,0Zm9.076,32.3A9.076,9.076,0,0,1,32.3,41.372H13.7A9.076,9.076,0,0,1,4.628,32.3V13.7A9.076,9.076,0,0,1,13.7,4.628H32.3A9.076,9.076,0,0,1,41.372,13.7V32.3Z" transform="translate(648.947 184.947)"/>
    <path id="XMLID_81_" class="cls-1" d="M144.9,133a11.9,11.9,0,1,0,11.9,11.9A11.911,11.911,0,0,0,144.9,133Zm0,19.167a7.27,7.27,0,1,1,7.27-7.27A7.27,7.27,0,0,1,144.9,152.167Z" transform="translate(527.05 63.05)"/>
    <circle id="XMLID_83_" class="cls-1" cx="2.851" cy="2.851" r="2.851" transform="translate(681.016 193.289)"/>
  </g>
</svg>
