<svg xmlns="http://www.w3.org/2000/svg" viewBox="0 0 44.947 42.619">
  <defs>
    <style>
      .cls-1 {
        fill: #fff;
        fill-rule: evenodd;
      }
    </style>
  </defs>
  <g id="グループ化_94" data-name="グループ化 94" transform="translate(-250 -192)">
    <path id="Fill-182" class="cls-1" d="M22.541,28.112a5.311,5.311,0,0,0,5.538-5.053A5.314,5.314,0,0,0,22.541,18,5.315,5.315,0,0,0,17,23.059a5.312,5.312,0,0,0,5.541,5.053" transform="translate(233 174)"/>
    <path id="Fill-183" class="cls-1" d="M18,57.657h9.936V29H18Z" transform="translate(233.269 176.962)"/>
    <path id="Fill-184" class="cls-1" d="M38.92,41.988c0-3.286,1.555-6.5,5.273-6.5s4.632,3.214,4.632,6.421V57.56h9.892V41.269C58.716,29.951,52.026,28,47.91,28s-6.38,1.391-8.99,4.761V28.9H29V57.56h9.92Z" transform="translate(236.231 176.693)"/>
  </g>
</svg>
